<svg width="414" height="314" viewBox="0 0 414 314" fill="none" xmlns="http://www.w3.org/2000/svg">
<path d="M-44.0251 12.8992C-44.0357 9.01843 -40.8872 5.86974 -37.0065 5.88007L401.241 7.04684C404.936 7.05667 407.987 9.93633 408.21 13.6243L425.352 297.136C425.661 302.24 418.983 304.42 416.22 300.117C358.628 210.401 240.779 181.643 148.335 234.748L13.4323 312.244C10.3578 314.01 6.67663 314.383 3.31018 313.27C-24.4947 304.077 -43.3004 278.126 -43.3804 248.841L-43.3831 247.863L-44.0251 12.8992Z" fill="#FD8B10"/>
<path d="M-102.939 -97.5426C-102.946 -101.409 -99.8182 -104.548 -95.9523 -104.556L434.713 -105.55C438.579 -105.557 441.719 -102.429 441.726 -98.5629L442.217 163.407C442.224 167.116 437.054 168.021 435.8 164.53C406.328 82.4401 307.211 50.3734 235.241 99.6439L149.153 158.579C76.883 202.66 -11.0123 213.047 -91.5665 187.026L-101.851 183.704C-102.186 183.595 -102.413 183.284 -102.414 182.932L-102.939 -97.5426Z" fill="#045A7C"/>
</svg>
